<?xml version="1.0" encoding="utf-8"?>
<!-- Generator: Adobe Illustrator 15.1.0, SVG Export Plug-In . SVG Version: 6.00 Build 0)  -->
<!DOCTYPE svg PUBLIC "-//W3C//DTD SVG 1.1//EN" "http://www.w3.org/Graphics/SVG/1.1/DTD/svg11.dtd">
<svg version="1.1" id="Icon" xmlns="http://www.w3.org/2000/svg" xmlns:xlink="http://www.w3.org/1999/xlink" x="0px" y="0px"
	 width="128px" height="128px" viewBox="0 0 128 128" enable-background="new 0 0 128 128" xml:space="preserve">
<path fill-rule="evenodd" clip-rule="evenodd" fill="#FFFFFF" d="M64.208,2.034c-35.039,0-63.453,28.41-63.453,63.461
	c0,28.033,18.181,51.817,43.399,60.209c3.172,0.582,4.331-1.377,4.331-3.059c0-1.506-0.055-5.497-0.086-10.792
	c-17.651,3.834-21.376-8.507-21.376-8.507c-2.885-7.331-7.045-9.282-7.045-9.282c-5.761-3.938,0.436-3.857,0.436-3.857
	c6.369,0.449,9.72,6.539,9.72,6.539c5.661,9.697,14.852,6.897,18.467,5.273c0.577-4.102,2.216-6.897,4.029-8.483
	c-14.091-1.603-28.905-7.046-28.905-31.362c0-6.928,2.473-12.592,6.532-17.028c-0.652-1.605-2.831-8.057,0.622-16.794
	c0,0,5.328-1.706,17.45,6.505c5.062-1.408,10.49-2.111,15.887-2.136c5.388,0.025,10.817,0.729,15.888,2.136
	c12.113-8.211,17.431-6.505,17.431-6.505c3.462,8.737,1.286,15.188,0.632,16.794c4.066,4.436,6.521,10.1,6.521,17.028
	c0,24.377-14.837,29.741-28.973,31.313c2.282,1.959,4.31,5.832,4.31,11.751c0,8.483-0.08,15.327-0.08,17.408
	c0,1.697,1.146,3.671,4.368,3.052c25.191-8.408,43.356-32.177,43.356-60.202C127.668,30.444,99.254,2.034,64.208,2.034z"/>
</svg>
