<?xml version="1.0" encoding="utf-8"?>
<!-- Generator: Adobe Illustrator 15.1.0, SVG Export Plug-In . SVG Version: 6.00 Build 0)  -->
<!DOCTYPE svg PUBLIC "-//W3C//DTD SVG 1.1//EN" "http://www.w3.org/Graphics/SVG/1.1/DTD/svg11.dtd">
<svg version="1.1" id="Layer_1" xmlns="http://www.w3.org/2000/svg" xmlns:xlink="http://www.w3.org/1999/xlink" x="0px" y="0px"
	 width="128px" height="128px" viewBox="406.388 416.585 128 128" enable-background="new 406.388 416.585 128 128"
	 xml:space="preserve">
<path fill="#FFFFFF" d="M519.62,544.585h-98.464c-8.16,0-14.768-6.616-14.768-14.776v-98.456c0-8.16,6.608-14.768,14.768-14.768
	h98.464c8.16,0,14.769,6.608,14.769,14.768v98.456C534.389,537.969,527.78,544.585,519.62,544.585 M470.388,455.969
	c-13.6,0-24.616,11.016-24.616,24.616s11.016,24.616,24.616,24.616s24.616-11.016,24.616-24.616S483.988,455.969,470.388,455.969
	 M519.62,436.273c0-2.72-2.2-4.912-4.929-4.912h-14.767c-2.72,0-4.92,2.2-4.92,4.92v14.784c0,2.72,2.208,4.92,4.92,4.92h14.767
	c2.721,0,4.929-2.208,4.929-4.92v-14.8V436.273z M519.62,470.753h-11.152c0.824,3.136,1.304,6.432,1.304,9.84
	c0,21.76-17.632,39.384-39.384,39.384c-21.76,0-39.384-17.632-39.384-39.384c0-3.408,0.48-6.704,1.296-9.84h-11.152v54.144
	c0,2.72,2.2,4.92,4.928,4.92h88.607c2.721,0,4.929-2.2,4.929-4.92v-54.16L519.62,470.753z"/>
</svg>
