<?xml version="1.0" encoding="utf-8"?>
<!-- Generator: Adobe Illustrator 15.1.0, SVG Export Plug-In . SVG Version: 6.00 Build 0)  -->
<!DOCTYPE svg PUBLIC "-//W3C//DTD SVG 1.1//EN" "http://www.w3.org/Graphics/SVG/1.1/DTD/svg11.dtd">
<svg version="1.1" id="Icon" xmlns="http://www.w3.org/2000/svg" xmlns:xlink="http://www.w3.org/1999/xlink" x="0px" y="0px"
	 width="128px" height="128px" viewBox="448 2436 128 128" enable-background="new 448 2436 128 128" xml:space="preserve">
<path fill="#FFFFFF" d="M559.131,2436.401h-94.262c-8.782,0-15.898,7.121-15.898,15.898v95.4c0,8.783,7.116,15.9,15.898,15.9h94.262
	c8.782,0,15.898-7.117,15.898-15.9v-95.4C575.029,2443.521,567.913,2436.401,559.131,2436.401z M537.936,2500.004
	c0,14.3-11.636,25.937-25.934,25.937c-14.301,0-25.937-11.637-25.937-25.937c0-4.302,1.069-8.347,2.927-11.925
	c4.328-8.311,13.006-14.014,23.01-14.014c10,0,18.683,5.698,23.006,14.014C536.867,2491.654,537.936,2495.702,537.936,2500.004z
	 M560.833,2542.889c0,3.598-2.92,6.518-6.519,6.518h-84.07c-3.6,0-6.518-2.92-6.518-6.518v-54.813h10.754
	c-1.2,3.766-1.858,7.767-1.858,11.924c0,21.709,17.662,39.372,39.372,39.372s39.371-17.662,39.371-39.372
	c0-4.157-0.659-8.158-1.858-11.924h11.321v54.813H560.833z M560.833,2467.552c0,3.6-2.92,6.519-6.519,6.519h-9.873
	c-3.601,0-6.519-2.919-6.519-6.519v-10.772c0-2.857,1.85-5.257,4.411-6.139h11.976c3.6,0,6.519,2.918,6.519,6.518v10.393H560.833z"
	/>
</svg>
