<?xml version="1.0" encoding="utf-8"?>
<!-- Generator: Adobe Illustrator 15.1.0, SVG Export Plug-In . SVG Version: 6.00 Build 0)  -->
<!DOCTYPE svg PUBLIC "-//W3C//DTD SVG 1.1//EN" "http://www.w3.org/Graphics/SVG/1.1/DTD/svg11.dtd">
<svg version="1.1" id="Layer_1" xmlns="http://www.w3.org/2000/svg" xmlns:xlink="http://www.w3.org/1999/xlink" x="0px" y="0px"
	 width="128px" height="128px" viewBox="0 0 128 128" enable-background="new 0 0 128 128" xml:space="preserve">
<path fill="#FFFFFF" d="M64,0C46.616,0,44.44,0.08,37.616,0.384C30.8,0.704,26.16,1.776,22.08,3.36
	c-4.208,1.632-7.784,3.824-11.336,7.384c-3.56,3.552-5.76,7.12-7.384,11.336c-1.584,4.08-2.664,8.72-2.976,15.536
	C0.064,44.44,0,46.616,0,64s0.08,19.56,0.384,26.384c0.32,6.816,1.392,11.464,2.976,15.536c1.632,4.208,3.824,7.784,7.384,11.336
	c3.552,3.56,7.12,5.76,11.336,7.384c4.08,1.584,8.72,2.664,15.536,2.976c6.824,0.32,9,0.384,26.384,0.384s19.56-0.08,26.384-0.384
	c6.816-0.32,11.464-1.392,15.536-2.976c4.208-1.632,7.784-3.824,11.336-7.384c3.56-3.552,5.76-7.12,7.384-11.336
	c1.584-4.08,2.664-8.72,2.976-15.536c0.32-6.824,0.384-9,0.384-26.384s-0.08-19.56-0.384-26.384
	c-0.32-6.816-1.392-11.464-2.976-15.536c-1.632-4.208-3.824-7.784-7.384-11.336c-3.552-3.56-7.12-5.76-11.336-7.384
	c-4.08-1.584-8.72-2.664-15.536-2.976C83.56,0.064,81.384,0,64,0z M64,11.52c17.088,0,19.12,0.08,25.864,0.384
	c6.24,0.288,9.624,1.328,11.88,2.208c2.992,1.16,5.12,2.544,7.36,4.784s3.624,4.368,4.784,7.36c0.88,2.256,1.92,5.64,2.208,11.88
	c0.304,6.752,0.376,8.776,0.376,25.864s-0.08,19.12-0.384,25.864c-0.288,6.24-1.328,9.624-2.208,11.88
	c-1.16,2.992-2.544,5.12-4.784,7.36c-2.24,2.24-4.368,3.624-7.36,4.784c-2.256,0.88-5.64,1.92-11.88,2.208
	c-6.752,0.304-8.776,0.376-25.864,0.376s-19.12-0.08-25.864-0.384c-6.24-0.288-9.624-1.328-11.88-2.208
	c-2.992-1.16-5.12-2.544-7.36-4.784c-2.24-2.24-3.624-4.368-4.784-7.36c-0.88-2.256-1.92-5.64-2.208-11.88
	C11.6,83.12,11.52,81.088,11.52,64s0.08-19.12,0.384-25.864c0.288-6.24,1.328-9.624,2.208-11.88c1.16-2.992,2.544-5.12,4.784-7.36
	s4.368-3.624,7.36-4.784c2.256-0.88,5.64-1.92,11.88-2.208C44.88,11.6,46.912,11.52,64,11.52z M64,31.136
	c-18.16,0-32.864,14.72-32.864,32.864c0,18.16,14.72,32.864,32.864,32.864c18.16,0,32.864-14.72,32.864-32.864
	C96.864,45.84,82.144,31.136,64,31.136z M64,85.336c-11.784,0-21.336-9.552-21.336-21.336S52.216,42.664,64,42.664
	S85.336,52.216,85.336,64S75.784,85.336,64,85.336z M105.84,29.84c0,4.24-3.44,7.68-7.68,7.68c-4.24,0-7.68-3.44-7.68-7.68
	c0-4.24,3.44-7.68,7.68-7.68C102.4,22.16,105.84,25.6,105.84,29.84z"/>
</svg>
