<?xml version="1.0" encoding="utf-8"?>
<!-- Generator: Adobe Illustrator 15.1.0, SVG Export Plug-In . SVG Version: 6.00 Build 0)  -->
<!DOCTYPE svg PUBLIC "-//W3C//DTD SVG 1.1//EN" "http://www.w3.org/Graphics/SVG/1.1/DTD/svg11.dtd">
<svg version="1.1" id="Layer_1" xmlns="http://www.w3.org/2000/svg" xmlns:xlink="http://www.w3.org/1999/xlink" x="0px" y="0px"
	 width="128px" height="128px" viewBox="448 2436 128 128" enable-background="new 448 2436 128 128" xml:space="preserve">
<path fill="#FFFFFF" d="M557.057,2545.08h-18.961v-29.704c0-7.088-0.144-16.2-9.871-16.2c-9.881,0-11.393,7.712-11.393,15.68v30.225
	h-18.96V2484h18.208v8.32h0.24c2.544-4.8,8.736-9.864,17.976-9.864c19.2,0,22.761,12.64,22.761,29.096v33.505V2545.08z
	 M476.464,2475.64c-6.096,0-11.008-4.936-11.008-11.016c0-6.064,4.912-11,11.008-11c6.08,0,11.008,4.936,11.008,11
	C487.472,2470.704,482.536,2475.64,476.464,2475.64z M485.968,2545.08H466.96V2484h19.008V2545.08L485.968,2545.08z M566.527,2436
	H457.44c-5.216,0-9.44,4.128-9.44,9.224v109.551c0,5.097,4.224,9.225,9.44,9.225h109.08c5.217,0,9.48-4.128,9.48-9.225v-109.551
	c0-5.096-4.264-9.224-9.48-9.224H566.527z"/>
</svg>
