<?xml version="1.0" encoding="utf-8"?>
<!-- Generator: Adobe Illustrator 15.1.0, SVG Export Plug-In . SVG Version: 6.00 Build 0)  -->
<!DOCTYPE svg PUBLIC "-//W3C//DTD SVG 1.1//EN" "http://www.w3.org/Graphics/SVG/1.1/DTD/svg11.dtd">
<svg version="1.1" id="Layer_1" xmlns="http://www.w3.org/2000/svg" xmlns:xlink="http://www.w3.org/1999/xlink" x="0px" y="0px"
	 width="110.852px" height="128px" viewBox="0 0 110.852 128" enable-background="new 0 0 110.852 128" xml:space="preserve">
<g>
	<g>
		<polygon fill="#4D9E90" points="0,32 55.427,0 110.852,32 110.852,96 55.427,128 0,96 		"/>
	</g>
	<g>
		<path fill="#FFFFFF" d="M55.425,32.222l21.071,12.165l-7.799,4.503l-5.818,3.359l3.468,5.753l14.22,23.589L55.425,96.107
			L34.354,83.941l7.798-4.503l5.817-3.359l-3.468-5.753L30.284,46.737L55.425,32.222 M55.425,24.609L21.17,44.387l17.686,29.342
			L21.17,83.942l34.255,19.778l34.256-19.778L71.993,54.599l17.688-10.212L55.425,24.609L55.425,24.609z"/>
	</g>
</g>
</svg>
